<svg xmlns="http://www.w3.org/2000/svg" version="1.1" xmlns:xlink="http://www.w3.org/1999/xlink" xmlns:svgjs="http://svgjs.dev/svgjs" width="2000" height="1500" viewBox="0 0 2000 1500"><rect width="2000" height="1500" fill="#d3d3d3"></rect><g transform="matrix(0.75,0,0,0.75,249.090909090909,497.29053142401676)"><svg viewBox="0 0 396 134" data-background-color="#d3d3d3" preserveAspectRatio="xMidYMid meet" height="676" width="2000" xmlns="http://www.w3.org/2000/svg" xmlns:xlink="http://www.w3.org/1999/xlink"><g id="tight-bounds" transform="matrix(1,0,0,1,0.2400000000000091,-0.20893729944427264)"><svg viewBox="0 0 395.52 134.41787459888855" height="134.41787459888855" width="395.52"><g><svg viewBox="0 0 631.1251316145231 214.48851839999998" height="134.41787459888855" width="395.52"><g transform="matrix(1,0,0,1,235.60513161452306,29.387099431134388)"><svg viewBox="0 0 395.52 155.7143195377312" height="155.7143195377312" width="395.52"><g id="textblocktransform"><svg viewBox="0 0 395.52 155.7143195377312" height="155.7143195377312" width="395.52" id="textblock"><g><svg viewBox="0 0 395.52 89.44836923076923" height="89.44836923076923" width="395.52"><g transform="matrix(1,0,0,1,0,0)"><svg width="395.52" viewBox="1.75 -36 162.48 36.75" height="89.44836923076923" data-palette-color="#2b2b2b"><path d="M9.2-7.65L4.65-7.65 4.65-35.3 9.2-35.25 9.2-7.65ZM15.5-21.5L1.75-21.5 1.75-25.25 15.5-25.25 15.5-21.5ZM4.65-7.7L4.65-7.7 9.2-7.7Q9.2-6.25 9.6-5.25 10-4.25 10.75-3.73 11.5-3.2 12.55-3.2L12.55-3.2 12.15 0.75Q8.65 0.75 6.65-1.48 4.65-3.7 4.65-7.7ZM14.9-4.05L14.9-4.05 16.7-0.8Q15.7-0.05 14.53 0.35 13.35 0.75 12.15 0.75L12.15 0.75 12.55-3.2Q13.2-3.2 13.78-3.43 14.35-3.65 14.9-4.05ZM37.05-8.95L32.5-8.95 32.5-16.3 37.05-16.3 37.05-8.95ZM23-8.95L18.45-8.95 18.45-16.3 23-16.3 23-8.95ZM27.9-22.05L27.6-22.05 27.6-26 27.9-26 27.9-22.05ZM27.9 0.75L27.6 0.75 27.6-3.2 27.9-3.2 27.9 0.75ZM23-16.25L18.45-16.25Q18.45-19.05 19.67-21.25 20.9-23.45 22.97-24.73 25.05-26 27.7-26L27.7-26 27.7-22.05Q25.5-22.05 24.25-20.55 23-19.05 23-16.25L23-16.25ZM37.05-16.25L37.05-16.25 32.5-16.25Q32.5-19.05 31.27-20.55 30.05-22.05 27.8-22.05L27.8-22.05 27.8-26Q30.45-26 32.52-24.73 34.6-23.45 35.82-21.25 37.05-19.05 37.05-16.25ZM18.45-9L18.45-9 23-9Q23-6.25 24.25-4.73 25.5-3.2 27.7-3.2L27.7-3.2 27.7 0.75Q25.05 0.75 22.97-0.53 20.9-1.8 19.67-4 18.45-6.2 18.45-9ZM32.5-9L37.05-9Q37.05-6.2 35.82-4 34.6-1.8 32.52-0.53 30.45 0.75 27.8 0.75L27.8 0.75 27.8-3.2Q30.05-3.2 31.27-4.73 32.5-6.25 32.5-9L32.5-9ZM69.04-35.25L69.04-25.2 64.49-25.2 64.49-35.25 69.04-35.25ZM69.04 0L64.49 0 64.49-25.25 69.04-25.25 69.04 0ZM54.99-8.05L50.44-8.05 50.44-17.2 54.99-17.2 54.99-8.05ZM54.99-17.2L54.99-17.2 50.44-17.2Q50.44-19.7 51.49-21.7 52.54-23.7 54.37-24.85 56.19-26 58.54-26L58.54-26 59.69-21.95Q57.64-21.95 56.32-20.63 54.99-19.3 54.99-17.2ZM66.49-17.1L66.49-17.1 64.49-17.1Q64.49-19.25 63.14-20.6 61.79-21.95 59.69-21.95L59.69-21.95 58.54-26Q60.79-26 62.62-24.85 64.44-23.7 65.47-21.68 66.49-19.65 66.49-17.1ZM50.44-8.05L54.99-8.05Q54.99-5.95 56.32-4.63 57.64-3.3 59.69-3.3L59.69-3.3 58.54 0.75Q56.19 0.75 54.37-0.4 52.54-1.55 51.49-3.55 50.44-5.55 50.44-8.05L50.44-8.05ZM64.49-8.2L66.49-8.2Q66.49-5.65 65.47-3.63 64.44-1.6 62.62-0.43 60.79 0.75 58.54 0.75L58.54 0.75 59.69-3.3Q61.79-3.3 63.14-4.65 64.49-6 64.49-8.2L64.49-8.2ZM92.29-8.95L87.74-8.95 87.74-16.3 92.29-16.3 92.29-8.95ZM78.24-8.95L73.69-8.95 73.69-16.3 78.24-16.3 78.24-8.95ZM83.14-22.05L82.84-22.05 82.84-26 83.14-26 83.14-22.05ZM83.14 0.75L82.84 0.75 82.84-3.2 83.14-3.2 83.14 0.75ZM78.24-16.25L73.69-16.25Q73.69-19.05 74.92-21.25 76.14-23.45 78.22-24.73 80.29-26 82.94-26L82.94-26 82.94-22.05Q80.74-22.05 79.49-20.55 78.24-19.05 78.24-16.25L78.24-16.25ZM92.29-16.25L92.29-16.25 87.74-16.25Q87.74-19.05 86.52-20.55 85.29-22.05 83.04-22.05L83.04-22.05 83.04-26Q85.69-26 87.77-24.73 89.84-23.45 91.07-21.25 92.29-19.05 92.29-16.25ZM73.69-9L73.69-9 78.24-9Q78.24-6.25 79.49-4.73 80.74-3.2 82.94-3.2L82.94-3.2 82.94 0.75Q80.29 0.75 78.22-0.53 76.14-1.8 74.92-4 73.69-6.2 73.69-9ZM87.74-9L92.29-9Q92.29-6.2 91.07-4 89.84-1.8 87.77-0.53 85.69 0.75 83.04 0.75L83.04 0.75 83.04-3.2Q85.29-3.2 86.52-4.73 87.74-6.25 87.74-9L87.74-9ZM111.49 0L106.94 0 106.94-36 111.49-36 111.49 0ZM123.03 0L118.48 0 118.48-25.25 123.03-25.25 123.03 0ZM120.73-28.6L120.73-28.6Q119.48-28.6 118.63-29.45 117.78-30.3 117.78-31.55L117.78-31.55Q117.78-32.8 118.63-33.68 119.48-34.55 120.73-34.55L120.73-34.55Q121.98-34.55 122.86-33.68 123.73-32.8 123.73-31.55L123.73-31.55Q123.73-30.3 122.86-29.45 121.98-28.6 120.73-28.6ZM141.38-6.5L141.38-6.5Q141.38-7.75 140.48-8.58 139.58-9.4 138.16-10.08 136.73-10.75 135.16-11.45 133.58-12.15 132.16-13.08 130.73-14 129.83-15.43 128.93-16.85 128.93-18.9L128.93-18.9Q128.93-18.9 129.36-18.9 129.78-18.9 130.46-18.9 131.13-18.9 131.78-18.9 132.43-18.9 132.88-18.9 133.33-18.9 133.33-18.9L133.33-18.9Q133.33-17.65 134.23-16.82 135.13-16 136.56-15.35 137.98-14.7 139.58-13.98 141.18-13.25 142.58-12.3 143.98-11.35 144.91-9.98 145.83-8.6 145.83-6.5L145.83-6.5Q145.83-6.5 145.38-6.5 144.93-6.5 144.26-6.5 143.58-6.5 142.93-6.5 142.28-6.5 141.83-6.5 141.38-6.5 141.38-6.5ZM137.13 0.75L137.13 0.75 137.13-3.2Q138.98-3.2 140.18-4.13 141.38-5.05 141.38-6.5L141.38-6.5 145.83-6.5Q145.83-4.4 144.71-2.75 143.58-1.1 141.63-0.18 139.68 0.75 137.13 0.75ZM133.33-18.9L128.93-18.9Q128.93-20.95 129.96-22.58 130.98-24.2 132.83-25.13 134.68-26.05 136.93-26.05L136.93-26.05 136.93-22.1Q135.38-22.1 134.36-21.2 133.33-20.3 133.33-18.9L133.33-18.9ZM128.18-6.7L132.38-7.55Q132.63-5.35 133.98-4.28 135.33-3.2 137.13-3.2L137.13-3.2 137.13 0.75Q134.83 0.75 132.88-0.2 130.93-1.15 129.71-2.85 128.48-4.55 128.18-6.7L128.18-6.7ZM145.88-18.6L141.63-17.75Q141.38-20 140.06-21.05 138.73-22.1 136.93-22.1L136.93-22.1 136.93-26.05Q139.28-26.05 141.18-25.1 143.08-24.15 144.33-22.48 145.58-20.8 145.88-18.6L145.88-18.6ZM156.73-7.65L152.18-7.65 152.18-35.3 156.73-35.25 156.73-7.65ZM163.03-21.5L149.28-21.5 149.28-25.25 163.03-25.25 163.03-21.5ZM152.18-7.7L152.18-7.7 156.73-7.7Q156.73-6.25 157.13-5.25 157.53-4.25 158.28-3.73 159.03-3.2 160.08-3.2L160.08-3.2 159.68 0.75Q156.18 0.75 154.18-1.48 152.18-3.7 152.18-7.7ZM162.43-4.05L162.43-4.05 164.23-0.8Q163.23-0.05 162.05 0.35 160.88 0.75 159.68 0.75L159.68 0.75 160.08-3.2Q160.73-3.2 161.3-3.43 161.88-3.65 162.43-4.05Z" opacity="1" transform="matrix(1,0,0,1,0,0)" fill="#2b2b2b" class="wordmark-text-0" data-fill-palette-color="primary" id="text-0"></path></svg></g></svg></g><g transform="matrix(1,0,0,1,0,110.56498244529232)"><svg viewBox="0 0 232.209792 45.14933709243889" height="45.14933709243889" width="232.209792"><g transform="matrix(1,0,0,1,0,0)"><svg width="232.209792" viewBox="1.25 -36.45999999577501 191.87090890122 37.30999999577501" height="45.14933709243889" data-palette-color="#2b2b2b"><path d="M10.8 0.85L10.8 0.85Q9.3 0.85 7.95 0.1 6.6-0.65 5.73-2.2 4.85-3.75 4.85-6.1L4.85-6.1 4.85-20.8 1.95-20.7Q1.6-20.7 1.43-20.98 1.25-21.25 1.25-21.6L1.25-21.6Q1.25-22.6 1.95-22.75L1.95-22.75Q3.8-23.1 4.75-23.93 5.7-24.75 6.23-25.9 6.75-27.05 7.2-28.4L7.2-28.4Q7.35-28.8 7.65-28.93 7.95-29.05 8.3-29.05L8.3-29.05Q8.6-29.05 8.97-28.9 9.35-28.75 9.35-28.35L9.35-28.35 9-22.65 14.85-23Q15.3-23.05 15.45-22.75 15.6-22.45 15.6-22.05L15.6-22.05Q15.6-21.55 15.43-21.05 15.25-20.55 15-20.55L15-20.55 9.4-20.7 9.4-5.5Q9.4-4.05 10.03-2.85 10.65-1.65 12.3-1.65L12.3-1.65Q12.85-1.65 13.55-1.75 14.25-1.85 15.05-2.2L15.05-2.2Q15.25-2.3 15.45-2.38 15.65-2.45 15.85-2.45L15.85-2.45Q16.25-2.45 16.45-2.13 16.65-1.8 16.8-1.45L16.8-1.45Q16.95-1 16.55-0.75L16.55-0.75Q15 0.25 13.7 0.55 12.4 0.85 10.8 0.85ZM32.65 0.6L32.65 0.6Q29.15 0.6 26.52-1.05 23.9-2.7 22.45-5.35 21-8 21-11L21-11Q21-13.95 22.05-16.25 23.1-18.55 24.82-20.1 26.55-21.65 28.6-22.45 30.65-23.25 32.65-23.25L32.65-23.25Q36.15-23.25 38.77-21.6 41.4-19.95 42.85-17.3 44.3-14.65 44.3-11.65L44.3-11.65Q44.3-8.7 43.22-6.4 42.15-4.1 40.42-2.55 38.7-1 36.65-0.2 34.6 0.6 32.65 0.6ZM32.65-1.25L32.65-1.25Q35.1-1.25 36.52-2.7 37.95-4.15 38.57-6.53 39.2-8.9 39.2-11.65L39.2-11.65Q39.2-14.3 38.55-16.5 37.9-18.7 36.45-20.05 35-21.4 32.65-21.4L32.65-21.4Q30.2-21.4 28.75-19.98 27.3-18.55 26.7-16.23 26.1-13.9 26.1-11.1L26.1-11.1Q26.1-8.5 26.72-6.25 27.35-4 28.8-2.63 30.25-1.25 32.65-1.25ZM70.04 0.6L70.04 0.6Q67.24 0.6 64.84-0.9 62.44-2.4 60.99-5.1 59.54-7.8 59.54-11.35L59.54-11.35Q59.54-14.45 61.02-17.18 62.49-19.9 65.12-21.58 67.74-23.25 71.09-23.25L71.09-23.25Q72.69-23.25 74.24-22.88 75.79-22.5 76.89-21.85L76.89-21.85 77.04-21.85 77.04-29.5Q77.04-30.4 76.97-31.18 76.89-31.95 76.39-32.43 75.89-32.9 74.49-32.9L74.49-32.9Q74.04-32.9 73.67-33.02 73.29-33.15 73.29-33.9L73.29-33.9Q73.29-34.65 74.09-34.8L74.09-34.8Q76.39-35.15 77.62-35.5 78.84-35.85 79.49-36.1 80.14-36.35 80.64-36.4L80.64-36.4Q81.04-36.45 81.32-36.25 81.59-36.05 81.59-35.45L81.59-35.45 81.59-4.6Q81.59-1.65 85.49-1.65L85.49-1.65Q86.04-1.65 86.19-1.38 86.34-1.1 86.34-0.85L86.34-0.85Q86.34-0.15 85.49 0L85.49 0 77.54 0.55Q77.19 0.55 77.14 0.25 77.09-0.05 77.09-0.45L77.09-0.45 77.09-2.45 76.94-2.45Q75.69-1.15 73.82-0.28 71.94 0.6 70.04 0.6ZM71.74-1.9L71.74-1.9Q73.64-1.9 74.89-2.68 76.14-3.45 77.04-4.4L77.04-4.4 77.04-17.6Q76.79-18.45 76.12-19.33 75.44-20.2 74.32-20.83 73.19-21.45 71.59-21.45L71.59-21.45Q68.69-21.45 66.69-18.73 64.69-16 64.69-11.1L64.69-11.1Q64.69-8.75 65.47-6.63 66.24-4.5 67.79-3.2 69.34-1.9 71.74-1.9ZM100.19 0.6L100.19 0.6Q96.69 0.6 94.07-1.05 91.44-2.7 89.99-5.35 88.54-8 88.54-11L88.54-11Q88.54-13.95 89.59-16.25 90.64-18.55 92.37-20.1 94.09-21.65 96.14-22.45 98.19-23.25 100.19-23.25L100.19-23.25Q103.69-23.25 106.32-21.6 108.94-19.95 110.39-17.3 111.84-14.65 111.84-11.65L111.84-11.65Q111.84-8.7 110.77-6.4 109.69-4.1 107.97-2.55 106.24-1 104.19-0.2 102.14 0.6 100.19 0.6ZM100.19-1.25L100.19-1.25Q102.64-1.25 104.07-2.7 105.49-4.15 106.12-6.53 106.74-8.9 106.74-11.65L106.74-11.65Q106.74-14.3 106.09-16.5 105.44-18.7 103.99-20.05 102.54-21.4 100.19-21.4L100.19-21.4Q97.74-21.4 96.29-19.98 94.84-18.55 94.24-16.23 93.64-13.9 93.64-11.1L93.64-11.1Q93.64-8.5 94.27-6.25 94.89-4 96.34-2.63 97.79-1.25 100.19-1.25ZM126.99 0.15L126.99 0.15Q126.64 0.15 126.41-0.18 126.19-0.5 126.19-0.85L126.19-0.85Q126.24-1.6 126.56-1.68 126.89-1.75 127.34-1.75L127.34-1.75Q128.74-1.75 129.26-2.23 129.79-2.7 129.86-3.5 129.94-4.3 129.94-5.15L129.94-5.15 129.94-29.55Q129.94-30.45 129.86-31.23 129.79-32 129.29-32.48 128.79-32.95 127.39-32.95L127.39-32.95Q126.94-32.95 126.56-33.08 126.19-33.2 126.19-33.95L126.19-33.95Q126.19-34.7 126.99-34.85L126.99-34.85Q129.29-35.2 130.51-35.55 131.74-35.9 132.39-36.15 133.04-36.4 133.54-36.45L133.54-36.45Q133.94-36.5 134.21-36.3 134.49-36.1 134.49-35.5L134.49-35.5 134.49-5.15Q134.49-4.3 134.56-3.5 134.64-2.7 135.16-2.23 135.69-1.75 137.09-1.75L137.09-1.75Q137.54-1.75 137.86-1.68 138.19-1.6 138.24-0.85L138.24-0.85Q138.24-0.5 138.04-0.18 137.84 0.15 137.44 0.15L137.44 0.15Q135.99 0.05 134.76 0.03 133.54 0 132.19 0L132.19 0Q130.84 0 129.64 0.03 128.44 0.05 126.99 0.15ZM141.78 0.15L141.78 0.15Q141.43 0.15 141.21-0.18 140.98-0.5 140.98-0.85L140.98-0.85Q141.08-1.6 141.38-1.68 141.68-1.75 142.18-1.75L142.18-1.75Q143.58-1.75 144.08-2.23 144.58-2.7 144.66-3.5 144.73-4.3 144.73-5.15L144.73-5.15 144.73-16.6Q144.73-17.5 144.66-18.28 144.58-19.05 144.08-19.53 143.58-20 142.18-20L142.18-20Q141.73-20 141.36-20.13 140.98-20.25 140.98-21L140.98-21Q140.98-21.75 141.78-21.9L141.78-21.9Q144.08-22.25 145.31-22.6 146.53-22.95 147.18-23.2 147.83-23.45 148.33-23.5L148.33-23.5Q148.73-23.55 149.01-23.35 149.28-23.15 149.28-22.55L149.28-22.55 149.28-5.15Q149.28-4.3 149.36-3.5 149.43-2.7 149.96-2.23 150.48-1.75 151.88-1.75L151.88-1.75Q152.33-1.75 152.66-1.68 152.98-1.6 153.03-0.85L153.03-0.85Q153.03-0.5 152.83-0.18 152.63 0.15 152.23 0.15L152.23 0.15Q150.78 0.05 149.56 0.03 148.33 0 146.98 0L146.98 0Q145.63 0 144.43 0.03 143.23 0.05 141.78 0.15ZM146.73-29.05L146.73-29.05Q145.33-29.05 144.38-29.93 143.43-30.8 143.43-32.1L143.43-32.1Q143.43-33.25 144.58-34.15 145.73-35.05 147.18-35.05L147.18-35.05Q148.43-35.05 149.23-34.18 150.03-33.3 150.03-31.95L150.03-31.95Q150.03-30.75 149.08-29.9 148.13-29.05 146.73-29.05ZM165.03 0.6L165.03 0.6Q161.18 0.6 158.61-0.78 156.03-2.15 156.03-4.75L156.03-4.75Q156.03-6.2 156.91-7.1 157.78-8 159.18-8L159.18-8Q160.08-8 160.66-7.53 161.23-7.05 161.23-6.85L161.23-6.85Q161.23-6.7 160.66-6.18 160.08-5.65 160.08-4.5L160.08-4.5Q160.08-3.1 161.41-2.18 162.73-1.25 165.43-1.25L165.43-1.25Q167.78-1.25 169.11-2.27 170.43-3.3 170.43-5.15L170.43-5.15Q170.43-6.65 169.46-7.48 168.48-8.3 166.96-8.8 165.43-9.3 163.71-9.8 161.98-10.3 160.43-11.05 158.88-11.8 157.91-13.13 156.93-14.45 156.93-16.65L156.93-16.65Q156.93-18.9 158.28-20.35 159.63-21.8 161.73-22.53 163.83-23.25 165.98-23.25L165.98-23.25Q167.83-23.25 169.48-22.73 171.13-22.2 172.21-21.15 173.28-20.1 173.28-18.5L173.28-18.5Q173.28-17.25 172.48-16.25 171.68-15.25 170.28-15.25L170.28-15.25Q169.38-15.25 168.81-15.73 168.23-16.2 168.23-16.4L168.23-16.4Q168.23-16.5 168.61-16.78 168.98-17.05 169.33-17.53 169.68-18 169.68-18.75L169.68-18.75Q169.58-20.2 168.28-20.9 166.98-21.6 165.38-21.6L165.38-21.6Q163.63-21.6 162.13-20.75 160.63-19.9 160.63-18.3L160.63-18.3Q160.63-16.85 161.26-16.05 161.88-15.25 163.26-14.68 164.63-14.1 166.83-13.4L166.83-13.4Q169.03-12.7 170.71-11.95 172.38-11.2 173.31-9.98 174.23-8.75 174.23-6.65L174.23-6.65Q174.23-4.55 173.03-2.9 171.83-1.25 169.76-0.33 167.68 0.6 165.03 0.6ZM187.08 0.85L187.08 0.85Q185.58 0.85 184.23 0.1 182.88-0.65 182-2.2 181.13-3.75 181.13-6.1L181.13-6.1 181.13-20.8 178.23-20.7Q177.88-20.7 177.7-20.98 177.53-21.25 177.53-21.6L177.53-21.6Q177.53-22.6 178.23-22.75L178.23-22.75Q180.08-23.1 181.03-23.93 181.98-24.75 182.5-25.9 183.03-27.05 183.48-28.4L183.48-28.4Q183.63-28.8 183.93-28.93 184.23-29.05 184.58-29.05L184.58-29.05Q184.88-29.05 185.25-28.9 185.63-28.75 185.63-28.35L185.63-28.35 185.28-22.65 191.13-23Q191.58-23.05 191.73-22.75 191.88-22.45 191.88-22.05L191.88-22.05Q191.88-21.55 191.7-21.05 191.53-20.55 191.28-20.55L191.28-20.55 185.68-20.7 185.68-5.5Q185.68-4.05 186.3-2.85 186.93-1.65 188.58-1.65L188.58-1.65Q189.13-1.65 189.83-1.75 190.53-1.85 191.33-2.2L191.33-2.2Q191.53-2.3 191.73-2.38 191.93-2.45 192.13-2.45L192.13-2.45Q192.53-2.45 192.73-2.13 192.93-1.8 193.08-1.45L193.08-1.45Q193.23-1 192.83-0.75L192.83-0.75Q191.28 0.25 189.98 0.55 188.68 0.85 187.08 0.85Z" opacity="1" transform="matrix(1,0,0,1,0,0)" fill="#2b2b2b" class="slogan-text-1" data-fill-palette-color="secondary" id="text-1"></path></svg></g></svg></g></svg></g></svg></g><g><svg viewBox="0 0 214.48851839999998 214.48851839999998" height="214.48851839999998" width="214.48851839999998"><g><svg></svg></g><g id="icon-0"><svg viewBox="0 0 214.48851839999998 214.48851839999998" height="214.48851839999998" width="214.48851839999998"><g><rect width="195.02567136" height="195.02567136" x="9.731423519999993" y="9.731423519999993" fill="#087f5b" data-fill-palette-color="accent"></rect><rect width="195.02567136" height="195.02567136" x="19.462847039999993" y="-5.329070518200751e-15" fill="#087f5b" opacity="0.5" data-fill-palette-color="accent"></rect></g><g transform="matrix(1,0,0,1,52.718203982808845,27.80406719999999)"><svg viewBox="0 0 109.05211043438229 158.880384" height="158.880384" width="109.05211043438229"><g><svg xmlns="http://www.w3.org/2000/svg" xmlns:xlink="http://www.w3.org/1999/xlink" version="1.1" x="0" y="0" viewBox="15.681 0 68.63746324531397 99.99940829905444" enable-background="new 0 0 100 100" xml:space="preserve" height="158.880384" width="109.05211043438229" class="icon-cg-0" data-fill-palette-color="quaternary" id="cg-0"><path fill="#b1cca4" d="M83.973 95.67L71.756 73.631c11.331-8.42 15.443-23.96 9.041-37.115C73.559 21.645 45.798 5.001 15.681 0c8.931 24.943 4.033 47.853 11.27 62.723 7.236 14.868 25.156 21.057 40.025 13.819 0.141-0.067 0.272-0.144 0.412-0.213l11.389 22.11c0.764 1.436 2.549 1.979 3.982 1.213C84.193 98.889 84.736 97.104 83.973 95.67z" data-fill-palette-color="quaternary"></path></svg></g></svg></g></svg></g></svg></g></svg></g><defs></defs></svg><rect width="395.52" height="134.41787459888855" fill="none" stroke="none" visibility="hidden"></rect></g></svg></g></svg>